<?xml version="1.0" encoding="utf-8"?>
<!-- Generator: Adobe Illustrator 24.3.0, SVG Export Plug-In . SVG Version: 6.00 Build 0)  -->
<svg version="1.1" id="Layer_1" xmlns="http://www.w3.org/2000/svg" xmlns:xlink="http://www.w3.org/1999/xlink" x="0px" y="0px"
	 viewBox="0 0 300 300" enable-background="new 0 0 300 300" xml:space="preserve">
<g>
	<g>
		<g>
			<polygon fill="#F4F4F4" points="147.57,264.797 29.056,237.383 29.056,35.205 147.57,65.641 			"/>
		</g>
		<g>
			<path fill="#AA6148" d="M111.609,172.394c-17.492,17.495-41.704,21.65-54.073,9.283c-12.357-12.372-8.211-36.578,9.289-54.07
				c17.495-17.498,41.695-21.65,54.067-9.283C133.258,130.69,129.112,154.902,111.609,172.394z"/>
		</g>
		<g>
			<path fill="#BC715C" d="M74.765,135.544c15.573-15.578,36.448-20.545,49.57-12.726c-0.963-1.618-2.085-3.139-3.443-4.494
				c-12.366-12.366-36.572-8.215-54.064,9.283c-17.504,17.492-21.649,41.698-9.289,54.07c1.358,1.358,2.876,2.48,4.494,3.443
				C54.22,171.993,59.18,151.117,74.765,135.544z"/>
		</g>
		<g>
			<g>
				<path fill="#BC715C" d="M62.771,182.788c-0.762,0-1.527-0.012-2.297-0.023c-2.504-0.047-4.5-2.114-4.453-4.618
					c0.047-2.474,2.067-4.452,4.535-4.452c0.026,0,0.053,0,0.083,0c12.915,0.23,23.105,0.422,25.913-25.429
					c3.614-33.245,31.591-30.82,31.875-30.791c2.492,0.248,4.308,2.475,4.06,4.967c-0.251,2.486-2.475,4.326-4.943,4.06
					c-2.002-0.168-19.393-0.989-21.974,22.745C92.307,179.265,78.396,182.788,62.771,182.788z"/>
			</g>
		</g>
		<g>
			<rect x="147.57" y="65.641" fill="#9AE8CE" width="123.374" height="199.155"/>
		</g>
		<g>
			<rect x="168.248" y="98.039" fill="#F4F4F4" width="39.307" height="9.26"/>
		</g>
		<g>
			<rect x="225.129" y="98.039" fill="#F4F4F4" width="25.134" height="9.26"/>
		</g>
		<g>
			<rect x="168.248" y="122.416" fill="#F4F4F4" width="39.307" height="9.26"/>
		</g>
		<g>
			<rect x="225.129" y="122.416" fill="#F4F4F4" width="25.134" height="9.26"/>
		</g>
		<g>
			<rect x="168.248" y="148.489" fill="#F4F4F4" width="39.307" height="9.26"/>
		</g>
		<g>
			<rect x="225.129" y="148.489" fill="#F4F4F4" width="25.134" height="9.26"/>
		</g>
		<g>
			<rect x="168.248" y="173.534" fill="#F4F4F4" width="39.307" height="9.26"/>
		</g>
		<g>
			<rect x="225.129" y="173.534" fill="#F4F4F4" width="25.134" height="9.26"/>
		</g>
		<g>
			<rect x="168.248" y="197.912" fill="#F4F4F4" width="39.307" height="9.26"/>
		</g>
		<g>
			<rect x="225.129" y="197.912" fill="#F4F4F4" width="25.134" height="9.26"/>
		</g>
		<g>
			<rect x="168.248" y="223.984" fill="#F4F4F4" width="39.307" height="9.26"/>
		</g>
		<g>
			<rect x="225.129" y="223.984" fill="#F4F4F4" width="25.134" height="9.26"/>
		</g>
		<g>
			<rect x="147.57" y="65.641" fill="#AEF4DB" width="13.571" height="199.155"/>
		</g>
		<g>
			<polygon fill="#F9F9F9" points="42.627,38.689 29.056,35.205 29.056,237.383 42.627,240.522 			"/>
		</g>
	</g>
	<g>
		<g>
			<path fill="#161616" d="M270.944,269.332h-16.16c-2.504,0-4.535-2.031-4.535-4.535s2.031-4.535,4.535-4.535h11.625V70.177
				H152.105v190.085h81.755c2.504,0,4.535,2.031,4.535,4.535s-2.031,4.535-4.535,4.535h-86.29c-2.504,0-4.535-2.031-4.535-4.535
				V65.641c0-2.504,2.031-4.535,4.535-4.535h123.374c2.504,0,4.535,2.032,4.535,4.535v199.156
				C275.479,267.301,273.448,269.332,270.944,269.332z"/>
		</g>
		<g>
			<path fill="#161616" d="M147.57,269.332c-0.34,0-0.685-0.038-1.022-0.118L28.035,241.801c-2.058-0.475-3.514-2.306-3.514-4.417
				V76.103c0-2.504,2.031-4.535,4.535-4.535s4.535,2.031,4.535,4.535v157.676l109.443,25.314V69.158L33.592,41.051V55.18
				c0,2.504-2.032,4.535-4.535,4.535s-4.535-2.032-4.535-4.535V35.204c0-1.403,0.65-2.725,1.757-3.585
				c1.107-0.862,2.554-1.157,3.906-0.809l118.514,30.437c2.005,0.517,3.407,2.324,3.407,4.394v199.156
				c0,1.382-0.632,2.69-1.713,3.549C149.584,268.99,148.586,269.332,147.57,269.332z"/>
		</g>
		<g>
			<rect x="168.248" y="98.039" fill="#161616" width="39.307" height="9.26"/>
		</g>
		<g>
			<rect x="225.129" y="98.039" fill="#161616" width="25.134" height="9.26"/>
		</g>
		<g>
			<rect x="168.248" y="122.416" fill="#161616" width="39.307" height="9.26"/>
		</g>
		<g>
			<rect x="225.129" y="122.416" fill="#161616" width="25.134" height="9.26"/>
		</g>
		<g>
			<rect x="168.248" y="148.489" fill="#161616" width="39.307" height="9.26"/>
		</g>
		<g>
			<rect x="225.129" y="148.489" fill="#161616" width="25.134" height="9.26"/>
		</g>
		<g>
			<rect x="168.248" y="173.534" fill="#161616" width="39.307" height="9.26"/>
		</g>
		<g>
			<rect x="225.129" y="173.534" fill="#161616" width="25.134" height="9.26"/>
		</g>
		<g>
			<rect x="168.248" y="197.912" fill="#161616" width="39.307" height="9.26"/>
		</g>
		<g>
			<rect x="225.129" y="197.912" fill="#161616" width="25.134" height="9.26"/>
		</g>
		<g>
			<rect x="168.248" y="223.984" fill="#161616" width="39.307" height="9.26"/>
		</g>
		<g>
			<rect x="225.129" y="223.984" fill="#161616" width="25.134" height="9.26"/>
		</g>
		<g>
			<path fill="#161616" d="M76.146,193.255c-8.48,0-16.213-2.723-21.865-8.371c-14.114-14.126-9.945-41.258,9.289-60.484
				c9.115-9.118,20.265-15.195,31.393-17.105c11.702-2.002,22.036,0.768,29.084,7.822c7.054,7.051,9.833,17.38,7.825,29.087
				c-1.907,11.129-7.981,22.281-17.102,31.396l0,0l0,0C103.235,187.14,88.855,193.255,76.146,193.255z M102.163,115.734
				c-1.816,0-3.709,0.165-5.663,0.502c-9.295,1.597-18.712,6.774-26.516,14.578c-15.7,15.691-19.866,37.071-9.286,47.657
				c10.583,10.583,31.966,6.413,47.66-9.283l0,0c7.804-7.804,12.98-17.22,14.578-26.518c1.494-8.719-0.387-16.228-5.3-21.139
				C113.826,117.721,108.452,115.734,102.163,115.734z"/>
		</g>
		<g>
			<path fill="#161616" d="M62.723,182.785c-0.762,0-1.527-0.006-2.297-0.021c-2.504-0.047-4.497-2.114-4.453-4.618
				c0.05-2.507,2.141-4.42,4.618-4.453c12.933,0.26,23.102,0.422,25.913-25.429c3.614-33.245,31.582-30.835,31.875-30.791
				c2.492,0.251,4.308,2.474,4.057,4.966c-0.248,2.483-2.465,4.296-4.943,4.06c-1.993-0.183-19.391-0.989-21.971,22.745
				C92.257,179.265,78.349,182.785,62.723,182.785z"/>
		</g>
	</g>
</g>
</svg>
